# xmcd
#
# Track frame offsets:
#	150
#	10194
#	22713
#	34224
#	45776
#	58051
#	76403
#	97010
#	114145
#	135604
#	145118
#	155057
#	166629
#
# Disc length: 2381 seconds
#
# Revision: 0
# Processed by: cddbd v1.4PL0 Copyright (c) Steve Scherf et al.
# Submitted via: dBpowerAMP V4.0
#
DISCID=92094b0d
DTITLE=Libby Whittemore - Almost a Legend
DYEAR=1998
DGENRE=Cabaret
TTITLE0=Gypsy in My Soul
TTITLE1=I'm Beginning to See the Light
TTITLE2=Let the Teardrops Fall
TTITLE3=Walkin' After Midnight
TTITLE4=Night Train
TTITLE5=Eighties Ladies
TTITLE6=Break It to Me Gently
TTITLE7=The Song Remembers When
TTITLE8=Dream a Little Dream of Me
TTITLE9=Route 66
TTITLE10=Kill Me with Kisses
TTITLE11=Hurt
TTITLE12=Sincerely
EXTD=Libby Whittemore is a local cabaret artist in Atlanta
EXTT0=
EXTT1=
EXTT2=
EXTT3=
EXTT4=
EXTT5=
EXTT6=
EXTT7=
EXTT8=
EXTT9=
EXTT10=
EXTT11=
EXTT12=
PLAYORDER=
